<svg data-v-423bf9ae="" xmlns="http://www.w3.org/2000/svg" viewBox="0 0 273 90" class="iconLeft"><!----><!----><!----><g data-v-423bf9ae="" id="918defc9-e2e5-48c0-859d-d74bed5c46dd" fill="#000000" transform="matrix(5.540166244014879,0,0,5.540166244014879,104.57063481226078,-0.6232691535316945)"><path d="M0.98 4.27L0.98 3.09L4.83 3.09L4.83 3.09Q5.54 3.09 6.19 3.27L6.19 3.27L6.19 3.27Q6.83 3.46 7.38 3.79L7.38 3.79L7.38 3.79Q7.94 4.13 8.39 4.60L8.39 4.60L8.39 4.60Q8.84 5.07 9.16 5.64L9.16 5.64L9.16 5.64Q9.47 6.21 9.65 6.87L9.65 6.87L9.65 6.87Q9.82 7.53 9.82 8.24L9.82 8.24L9.82 8.24Q9.82 8.97 9.65 9.63L9.65 9.63L9.65 9.63Q9.47 10.29 9.16 10.88L9.16 10.88L9.16 10.88Q8.84 11.46 8.39 11.93L8.39 11.93L8.39 11.93Q7.94 12.41 7.38 12.75L7.38 12.75L7.38 12.75Q6.83 13.08 6.19 13.27L6.19 13.27L6.19 13.27Q5.54 13.45 4.83 13.45L4.83 13.45L0.98 13.45L0.98 12.28L1.96 12.28L1.96 4.27L0.98 4.27ZM4.92 4.27L3.30 4.27L3.30 12.28L4.92 12.28L4.92 12.28Q5.63 12.28 6.27 11.96L6.27 11.96L6.27 11.96Q6.90 11.65 7.37 11.10L7.37 11.10L7.37 11.10Q7.84 10.56 8.11 9.83L8.11 9.83L8.11 9.83Q8.39 9.09 8.39 8.24L8.39 8.24L8.39 8.24Q8.39 7.41 8.11 6.69L8.11 6.69L8.11 6.69Q7.84 5.96 7.37 5.42L7.37 5.42L7.37 5.42Q6.90 4.89 6.27 4.58L6.27 4.58L6.27 4.58Q5.63 4.27 4.92 4.27L4.92 4.27ZM10.93 7.55L10.93 6.37L13.24 6.37L13.24 12.28L14.31 12.28L14.31 13.45L10.94 13.45L10.94 12.28L11.96 12.28L11.96 7.55L10.93 7.55ZM11.72 3.86L11.72 3.86L11.72 3.86Q11.72 3.68 11.79 3.52L11.79 3.52L11.79 3.52Q11.86 3.36 11.98 3.24L11.98 3.24L11.98 3.24Q12.10 3.12 12.26 3.05L12.26 3.05L12.26 3.05Q12.43 2.98 12.61 2.98L12.61 2.98L12.61 2.98Q12.79 2.98 12.95 3.05L12.95 3.05L12.95 3.05Q13.11 3.12 13.23 3.24L13.23 3.24L13.23 3.24Q13.35 3.36 13.42 3.52L13.42 3.52L13.42 3.52Q13.49 3.68 13.49 3.86L13.49 3.86L13.49 3.86Q13.49 4.05 13.42 4.21L13.42 4.21L13.42 4.21Q13.35 4.38 13.23 4.50L13.23 4.50L13.23 4.50Q13.11 4.63 12.95 4.70L12.95 4.70L12.95 4.70Q12.79 4.77 12.61 4.77L12.61 4.77L12.61 4.77Q12.43 4.77 12.26 4.70L12.26 4.70L12.26 4.70Q12.10 4.63 11.98 4.50L11.98 4.50L11.98 4.50Q11.86 4.38 11.79 4.21L11.79 4.21L11.79 4.21Q11.72 4.05 11.72 3.86ZM19.64 13.45L19.64 12.80L19.64 12.80Q19.24 13.17 18.75 13.41L18.75 13.41L18.75 13.41Q18.26 13.65 17.64 13.65L17.64 13.65L17.64 13.65Q17.12 13.65 16.68 13.49L16.68 13.49L16.68 13.49Q16.25 13.32 15.93 13.04L15.93 13.04L15.93 13.04Q15.62 12.76 15.45 12.38L15.45 12.38L15.45 12.38Q15.27 12.00 15.27 11.58L15.27 11.58L15.27 11.58Q15.27 11.13 15.40 10.78L15.40 10.78L15.40 10.78Q15.54 10.43 15.76 10.18L15.76 10.18L15.76 10.18Q15.98 9.92 16.28 9.74L16.28 9.74L16.28 9.74Q16.58 9.57 16.90 9.46L16.90 9.46L16.90 9.46Q17.23 9.36 17.56 9.31L17.56 9.31L17.56 9.31Q17.90 9.27 18.21 9.27L18.21 9.27L18.21 9.27Q18.70 9.27 19.04 9.30L19.04 9.30L19.04 9.30Q19.37 9.33 19.65 9.39L19.65 9.39L19.65 8.80L19.65 8.80Q19.65 8.43 19.54 8.15L19.54 8.15L19.54 8.15Q19.43 7.88 19.24 7.69L19.24 7.69L19.24 7.69Q19.04 7.51 18.76 7.42L18.76 7.42L18.76 7.42Q18.48 7.33 18.14 7.33L18.14 7.33L18.14 7.33Q17.82 7.33 17.53 7.38L17.53 7.38L17.53 7.38Q17.23 7.42 16.98 7.50L16.98 7.50L16.98 7.50Q16.72 7.57 16.51 7.66L16.51 7.66L16.51 7.66Q16.29 7.75 16.14 7.85L16.14 7.85L15.72 6.97L15.72 6.97Q15.98 6.81 16.28 6.67L16.28 6.67L16.28 6.67Q16.58 6.53 16.91 6.43L16.91 6.43L16.91 6.43Q17.24 6.33 17.59 6.27L17.59 6.27L17.59 6.27Q17.93 6.21 18.27 6.21L18.27 6.21L18.27 6.21Q18.88 6.21 19.37 6.36L19.37 6.36L19.37 6.36Q19.87 6.51 20.21 6.82L20.21 6.82L20.21 6.82Q20.55 7.12 20.73 7.60L20.73 7.60L20.73 7.60Q20.92 8.07 20.92 8.74L20.92 8.74L20.91 12.28L21.70 12.28L21.70 13.45L19.64 13.45ZM17.92 12.58L17.92 12.58L17.92 12.58Q18.17 12.58 18.42 12.52L18.42 12.52L18.42 12.52Q18.68 12.46 18.90 12.36L18.90 12.36L18.90 12.36Q19.13 12.25 19.32 12.11L19.32 12.11L19.32 12.11Q19.51 11.97 19.64 11.82L19.64 11.82L19.65 10.22L18.17 10.22L18.17 10.22Q17.80 10.22 17.50 10.30L17.50 10.30L17.50 10.30Q17.19 10.38 16.97 10.54L16.97 10.54L16.97 10.54Q16.75 10.70 16.63 10.93L16.63 10.93L16.63 10.93Q16.50 11.16 16.50 11.46L16.50 11.46L16.50 11.46Q16.50 11.74 16.60 11.95L16.60 11.95L16.60 11.95Q16.71 12.16 16.90 12.30L16.90 12.30L16.90 12.30Q17.08 12.44 17.34 12.51L17.34 12.51L17.34 12.51Q17.60 12.58 17.92 12.58ZM22.84 3.99L22.84 2.82L25.14 2.82L25.14 6.96L25.14 6.96Q25.59 6.61 26.12 6.41L26.12 6.41L26.12 6.41Q26.65 6.20 27.22 6.20L27.22 6.20L27.22 6.20Q27.92 6.20 28.50 6.46L28.50 6.46L28.50 6.46Q29.08 6.72 29.50 7.19L29.50 7.19L29.50 7.19Q29.92 7.66 30.15 8.32L30.15 8.32L30.15 8.32Q30.39 8.98 30.39 9.78L30.39 9.78L30.39 9.78Q30.39 10.64 30.13 11.33L30.13 11.33L30.13 11.33Q29.87 12.02 29.40 12.52L29.40 12.52L29.40 12.52Q28.94 13.02 28.31 13.29L28.31 13.29L28.31 13.29Q27.67 13.56 26.91 13.56L26.91 13.56L26.91 13.56Q26.39 13.56 25.93 13.41L25.93 13.41L25.93 13.41Q25.46 13.25 25.14 13.01L25.14 13.01L25.14 13.45L23.86 13.45L23.86 3.99L22.84 3.99ZM26.89 7.32L26.89 7.32L26.89 7.32Q26.39 7.32 25.93 7.53L25.93 7.53L25.93 7.53Q25.47 7.73 25.14 8.08L25.14 8.08L25.14 11.89L25.14 11.89Q25.35 12.11 25.78 12.29L25.78 12.29L25.78 12.29Q26.20 12.46 26.84 12.46L26.84 12.46L26.84 12.46Q27.28 12.46 27.69 12.30L27.69 12.30L27.69 12.30Q28.09 12.13 28.40 11.80L28.40 11.80L28.40 11.80Q28.70 11.47 28.89 10.98L28.89 10.98L28.89 10.98Q29.07 10.49 29.07 9.83L29.07 9.83L29.07 9.83Q29.07 9.23 28.90 8.76L28.90 8.76L28.90 8.76Q28.72 8.30 28.43 7.98L28.43 7.98L28.43 7.98Q28.13 7.66 27.73 7.49L27.73 7.49L27.73 7.49Q27.34 7.32 26.89 7.32Z"></path></g><defs data-v-423bf9ae=""><linearGradient data-v-423bf9ae="" gradientTransform="rotate(25)" id="7291194a-b23f-4cc0-9811-13faa4bab817" x1="0%" y1="0%" x2="100%" y2="0%"><stop data-v-423bf9ae="" offset="0%" style="stop-color: rgb(81, 6, 255); stop-opacity: 1;"></stop><stop data-v-423bf9ae="" offset="100%" style="stop-color: rgb(97, 203, 242); stop-opacity: 1;"></stop></linearGradient></defs><g data-v-423bf9ae="" id="94701cf4-5960-4229-9839-68241a515092" transform="matrix(2.8125,0,0,2.8125,0,0)" stroke="none" fill="url(#7291194a-b23f-4cc0-9811-13faa4bab817)"><path d="M16 1c8.271 0 15 6.729 15 15s-6.729 15-15 15S1 24.271 1 16 7.729 1 16 1m0-1C7.163 0 0 7.163 0 16s7.163 16 16 16 16-7.163 16-16S24.837 0 16 0z"></path><path d="M16 7.045L24.955 16 16 24.955 7.045 16 16 7.045m0-1.414L5.631 16 16 26.369 26.369 16 16 5.631z"></path><path d="M16 12.538L19.462 16 16 19.462 12.538 16 16 12.538m0-1.414L11.124 16 16 20.876 20.876 16 16 11.124z"></path></g><!----></svg>